# This file uses centimeters as units for non-parametric coordinates.

v 0.242168 -1.390726 4.566853
v 0.092500 -1.464085 4.486586
v -0.092500 -1.464085 4.486586
v -0.242168 -1.390726 4.566853
v -0.299336 -1.272029 4.696730
v -0.242168 -1.153333 4.826606
v -0.092500 -1.079974 4.906874
v 0.092500 -1.079974 4.906874
v 0.242168 -1.153333 4.826606
v 0.299335 -1.272029 4.696730
v 0.625634 1.229188 3.363317
v 0.238971 1.177256 3.087231
v -0.238971 1.177256 3.087231
v -0.625634 1.229188 3.363317
v -0.773326 1.313215 3.810032
v -0.625634 1.397241 4.256747
v -0.238971 1.449173 4.532832
v 0.238971 1.449173 4.532832
v 0.625634 1.397241 4.256747
v 0.773326 1.313215 3.810032
v 0.682750 1.665081 3.223035
v 0.260787 1.608408 2.921745
v -0.260787 1.608408 2.921745
v -0.682750 1.665081 3.223035
v -0.843925 1.756778 3.710532
v -0.682750 1.848476 4.198030
v -0.260787 1.905149 4.499320
v 0.260787 1.905149 4.499320
v 0.682750 1.848476 4.198030
v 0.843925 1.756778 3.710532
v 0.732315 2.144363 3.052010
v 0.279719 2.083576 2.728848
v -0.279719 2.083576 2.728848
v -0.732315 2.144363 3.052010
v -0.905191 2.242717 3.574898
v -0.732315 2.341072 4.097785
v -0.279719 2.401858 4.420948
v 0.279719 2.401858 4.420948
v 0.732314 2.341072 4.097785
v 0.905190 2.242717 3.574897
v 0.809017 2.817812 2.737487
v 0.309017 2.750659 2.380477
v -0.309017 2.750659 2.380477
v -0.809017 2.817812 2.737488
v -1.000000 2.926468 3.315143
v -0.809017 3.035125 3.892798
v -0.309017 3.102278 4.249808
v 0.309017 3.102278 4.249808
v 0.809017 3.035125 3.892797
v 1.000000 2.926468 3.315143
v 0.000000 2.926468 3.315143
v -0.689065 0.760062 3.845930
v -0.557466 0.685190 3.447888
v -0.212933 0.638917 3.201884
v 0.212933 0.638917 3.201884
v 0.557466 0.685190 3.447888
v 0.689065 0.760062 3.845930
v 0.557466 0.834933 4.243971
v 0.212933 0.881206 4.489975
v -0.212933 0.881206 4.489975
v -0.557466 0.834933 4.243971
v -0.616500 0.266592 3.785956
v -0.498759 0.199605 3.429831
v -0.190509 0.158205 3.209733
v 0.190509 0.158205 3.209733
v 0.498759 0.199605 3.429831
v 0.616500 0.266592 3.785956
v 0.498760 0.333579 4.142080
v 0.190509 0.374979 4.362177
v -0.190509 0.374979 4.362177
v -0.498759 0.333579 4.142080
v -0.540709 -0.211252 3.787176
v -0.437443 -0.270004 3.474832
v -0.167089 -0.306314 3.281792
v 0.167088 -0.306314 3.281792
v 0.437443 -0.270004 3.474832
v 0.540709 -0.211252 3.787176
v 0.437444 -0.152501 4.099519
v 0.167088 -0.116190 4.292558
v -0.167088 -0.116190 4.292558
v -0.437443 -0.152501 4.099519
v -0.472521 -0.638768 3.961591
v -0.382278 -0.690111 3.688637
v -0.146017 -0.721842 3.519941
v 0.146017 -0.721842 3.519941
v 0.382278 -0.690111 3.688637
v 0.472521 -0.638768 3.961591
v 0.382278 -0.587426 4.234545
v 0.146017 -0.555695 4.403241
v -0.146017 -0.555695 4.403241
v -0.382278 -0.587426 4.234545
v -0.431359 -1.051357 4.276585
v -0.348977 -1.143782 4.040485
v -0.133297 -1.200903 3.894566
v 0.133297 -1.200903 3.894566
v 0.348977 -1.143782 4.040485
v 0.431359 -1.051357 4.276585
v 0.348977 -0.958933 4.512685
v 0.133297 -0.901811 4.658604
v -0.133297 -0.901811 4.658604
v -0.348977 -0.958933 4.512685
v 0.186051 -1.443485 4.928900
v 0.071065 -1.504341 4.871666
v -0.229971 -1.345018 5.021509
v -0.186051 -1.246551 5.114115
v 0.229971 -1.345018 5.021509
v 0.186051 -1.246551 5.114115
v -0.071065 -1.185694 5.171350
v -0.071065 -1.504341 4.871666
v 0.071065 -1.185694 5.171350
v -0.186051 -1.443485 4.928901
v 0.056258 -1.404950 5.261070
v 0.016384 -1.418646 5.246477
v -0.104950 -1.363578 5.275788
v -0.101240 -1.291194 5.267671
v 0.099067 -1.291193 5.267672
v 0.104950 -1.363578 5.275788
v -0.054694 -1.229189 5.246902
v -0.016384 -1.418646 5.246478
v 0.054694 -1.229188 5.246903
v -0.056258 -1.404950 5.261071
v -0.000117 -1.367562 5.246592
vt 0.166156 0.132947
vt 0.190152 0.151882
vt 0.217401 0.161792
vt 0.246091 0.163717
vt 0.275018 0.157482
vt 0.303071 0.144607
vt 0.331078 0.129641
vt 0.360885 0.117455
vt 0.391323 0.108126
vt 0.420098 0.097690
vt 0.046965 0.655086
vt 0.127956 0.659385
vt 0.212549 0.658229
vt 0.296664 0.651249
vt 0.376941 0.638499
vt 0.451790 0.619868
vt 0.521372 0.594936
vt 0.586721 0.562985
vt 0.648956 0.523609
vt 0.708937 0.476005
vt 0.766516 0.420000
vt 0.037921 0.729496
vt 0.125129 0.739632
vt 0.215546 0.740180
vt 0.305402 0.731067
vt 0.391584 0.713770
vt 0.472591 0.689754
vt 0.548703 0.660013
vt 0.621220 0.624451
vt 0.691442 0.582615
vt 0.759997 0.533090
vt 0.826346 0.474542
vt 0.026793 0.812904
vt 0.120455 0.828161
vt 0.217537 0.830159
vt 0.314138 0.819183
vt 0.407232 0.797525
vt 0.495463 0.768107
vt 0.579292 0.733228
vt 0.660286 0.693588
vt 0.739498 0.648740
vt 0.817175 0.596837
vt 0.891592 0.536060
vt 0.011367 0.937178
vt 0.113230 0.956379
vt 0.217089 0.959502
vt 0.320584 0.947143
vt 0.422931 0.922014
vt 0.524109 0.887302
vt 0.623895 0.845457
vt 0.721434 0.797940
vt 0.816330 0.745028
vt 0.906959 0.686218
vt 0.991218 0.619456
vt 0.944583 0.100391
vt 0.866458 0.043630
vt 0.769891 0.043630
vt 0.691765 0.100391
vt 0.661924 0.192233
vt 0.691765 0.284074
vt 0.769890 0.340836
vt 0.866458 0.340836
vt 0.944583 0.284074
vt 0.974424 0.192233
vt 0.818174 0.185983
vt 0.351569 0.547783
vt 0.279231 0.556141
vt 0.204857 0.561102
vt 0.130448 0.563650
vt 0.701698 0.350840
vt 0.058314 0.565226
vt 0.653103 0.401747
vt 0.601160 0.446961
vt 0.545381 0.484497
vt 0.485006 0.513615
vt 0.420395 0.534306
vt 0.318279 0.469845
vt 0.255619 0.477876
vt 0.194664 0.481913
vt 0.133720 0.483707
vt 0.657659 0.285667
vt 0.071183 0.485177
vt 0.613933 0.328880
vt 0.563958 0.369437
vt 0.507667 0.405125
vt 0.446464 0.434023
vt 0.382525 0.455666
vt 0.290791 0.393245
vt 0.238151 0.405442
vt 0.188000 0.410851
vt 0.137659 0.410370
vt 0.614436 0.228985
vt 0.083822 0.403886
vt 0.573817 0.261750
vt 0.524431 0.291922
vt 0.467457 0.320649
vt 0.406986 0.348236
vt 0.347268 0.373739
vt 0.279029 0.315927
vt 0.234141 0.333003
vt 0.188932 0.340092
vt 0.143325 0.336568
vt 0.564386 0.186660
vt 0.097637 0.320891
vt 0.525562 0.206430
vt 0.478848 0.222937
vt 0.426623 0.240433
vt 0.373838 0.263439
vt 0.324840 0.291094
vt 0.270546 0.233651
vt 0.234226 0.248770
vt 0.196260 0.252863
vt 0.157938 0.245147
vt 0.511739 0.131001
vt 0.121479 0.223924
vt 0.476117 0.146301
vt 0.435219 0.155483
vt 0.390101 0.166079
vt 0.345250 0.184757
vt 0.306063 0.210179
vt 0.218442 0.096924
vt 0.399119 0.052520
vt 0.298838 0.093260
vt 0.280840 0.104518
vt 0.379471 0.063725
vt 0.358235 0.069222
vt 0.316470 0.081525
vt 0.238301 0.107970
vt 0.336972 0.073646
vt 0.260229 0.110463
vt 0.903055 0.959293
vt 0.947558 0.927491
vt 0.932393 0.769715
vt 0.861003 0.754437
vt 0.781891 0.937203
vt 0.840652 0.981152
vt 0.789104 0.778561
vt 0.749328 0.870185
vt 0.959432 0.829576
vt 0.966340 0.883830
vt 0.205010 0.077416
vt 0.263448 0.049249
vt 0.897762 0.880879
vt 0.268113 0.052407
vt 0.275586 0.054618
vt 0.286566 0.058523
vt 0.298665 0.063173
vt 0.312226 0.067076
vt 0.329415 0.060511
vt 0.335853 0.048887
vt 0.340753 0.037484
vt 0.345123 0.027249
vt 0.348282 0.020440
vt 0.444648 0.082841
vn 0.512040 -0.839118 -0.183566
vn 0.258230 -0.925553 -0.276891
vn 0.518770 -0.711794 -0.473525
vn 0.524745 -0.669710 -0.525482
vn -0.247096 -0.927555 -0.280332
vn 0.000000 -0.784650 -0.619939
vn 0.000000 -0.786977 -0.616982
vn -0.512040 -0.839118 -0.183566
vn -0.518771 -0.711794 -0.473525
vn -0.524745 -0.669710 -0.525482
vn -0.878805 -0.474536 0.050166
vn -0.895356 -0.424913 -0.133365
vn -0.872273 -0.488848 0.012971
vn -0.915135 -0.356727 -0.187813
vn -0.932867 0.060802 0.355053
vn -0.948945 0.077353 0.305809
vn -0.938535 0.051804 0.341275
vn -0.950410 0.103516 0.293268
vn -0.585399 0.610058 0.533983
vn -0.568356 0.544103 0.617190
vn -0.566777 0.612998 0.550453
vn -0.564048 0.512047 0.647810
vn 0.000000 0.812452 0.583028
vn 0.000000 0.812452 0.583028
vn 0.000000 0.680793 0.732476
vn 0.000000 0.684978 0.728564
vn 0.585399 0.610058 0.533983
vn 0.566777 0.612998 0.550453
vn 0.568356 0.544103 0.617190
vn 0.564048 0.512047 0.647809
vn 0.932867 0.060801 0.355053
vn 0.938535 0.051803 0.341275
vn 0.948946 0.077352 0.305808
vn 0.950410 0.103515 0.293267
vn 0.878805 -0.474537 0.050167
vn 0.872273 -0.488848 0.012971
vn 0.895356 -0.424913 -0.133365
vn 0.915135 -0.356727 -0.187813
vn 0.584360 -0.254632 -0.770510
vn 0.584307 -0.255425 -0.770288
vn 0.578359 -0.322453 -0.749350
vn 0.578338 -0.322638 -0.749286
vn 0.000000 -0.281615 -0.959528
vn 0.000000 -0.281659 -0.959515
vn 0.000000 -0.368152 -0.929766
vn 0.000000 -0.368126 -0.929776
vn -0.584360 -0.254632 -0.770510
vn -0.578359 -0.322453 -0.749350
vn -0.584307 -0.255425 -0.770288
vn -0.578338 -0.322638 -0.749286
vn -0.942836 -0.185565 -0.276814
vn -0.940522 -0.202360 -0.272890
vn -0.942860 -0.185377 -0.276857
vn -0.940597 -0.201850 -0.273010
vn -0.938962 -0.099836 0.329216
vn -0.945186 -0.052251 0.322324
vn -0.938938 -0.099992 0.329238
vn -0.945356 -0.050658 0.322080
vn -0.577983 -0.031670 0.815434
vn -0.585914 0.070723 0.807281
vn -0.578073 -0.030832 0.815403
vn -0.585985 0.072228 0.807097
vn 0.000000 -0.005241 0.999986
vn 0.000000 -0.005143 0.999987
vn 0.000000 0.118661 0.992935
vn 0.000000 0.118541 0.992949
vn 0.577983 -0.031670 0.815434
vn 0.578073 -0.030832 0.815402
vn 0.585914 0.070723 0.807281
vn 0.585985 0.072228 0.807097
vn 0.938962 -0.099836 0.329216
vn 0.938938 -0.099993 0.329238
vn 0.945186 -0.052251 0.322324
vn 0.945356 -0.050657 0.322080
vn 0.942836 -0.185565 -0.276814
vn 0.942860 -0.185377 -0.276857
vn 0.940522 -0.202360 -0.272890
vn 0.940597 -0.201850 -0.273010
vn 0.572176 -0.370563 -0.731641
vn 0.571660 -0.374063 -0.730261
vn 0.000000 -0.429932 -0.902861
vn 0.000000 -0.430135 -0.902765
vn -0.572176 -0.370562 -0.731641
vn -0.571661 -0.374063 -0.730261
vn -0.938480 -0.215662 -0.269712
vn -0.938041 -0.218374 -0.269057
vn -0.948161 -0.019682 0.317181
vn -0.948270 -0.018222 0.316943
vn -0.587768 0.142078 0.796456
vn -0.587779 0.145243 0.795877
vn 0.000000 0.205702 0.978615
vn 0.000000 0.205912 0.978571
vn 0.587768 0.142078 0.796456
vn 0.587780 0.145243 0.795877
vn 0.948161 -0.019681 0.317181
vn 0.948270 -0.018222 0.316942
vn 0.938480 -0.215662 -0.269713
vn 0.938041 -0.218374 -0.269057
vn 0.567456 -0.400605 -0.719381
vn 0.567456 -0.400605 -0.719381
vn 0.000000 -0.462908 -0.886407
vn 0.000000 -0.462908 -0.886406
vn -0.567457 -0.400604 -0.719381
vn -0.567457 -0.400604 -0.719380
vn -0.935923 -0.230834 -0.266013
vn -0.935923 -0.230834 -0.266014
vn -0.948740 -0.011564 0.315846
vn -0.948740 -0.011564 0.315845
vn -0.587672 0.168764 0.791303
vn -0.587672 0.168764 0.791303
vn 0.000000 0.237356 0.971423
vn 0.000000 0.237356 0.971423
vn 0.587673 0.168764 0.791302
vn 0.587673 0.168764 0.791302
vn 0.948740 -0.011564 0.315846
vn 0.948740 -0.011565 0.315846
vn 0.935923 -0.230834 -0.266013
vn 0.935924 -0.230834 -0.266013
vn 0.000000 0.982765 -0.184857
vn 0.000000 0.982765 -0.184857
vn 0.000000 0.982765 -0.184857
vn 0.000000 0.982765 -0.184857
vn 0.000000 0.982765 -0.184857
vn 0.000000 0.982765 -0.184857
vn 0.000000 0.982765 -0.184857
vn 0.000000 0.982765 -0.184857
vn 0.000000 0.982765 -0.184857
vn 0.000000 0.982765 -0.184857
vn 0.000000 0.982765 -0.184857
vn -0.948183 -0.133287 -0.288414
vn -0.947574 -0.140944 -0.286773
vn -0.587555 -0.121980 -0.799938
vn -0.587720 -0.134826 -0.797752
vn 0.000000 -0.124405 -0.992232
vn 0.000000 -0.124783 -0.992184
vn 0.587555 -0.121980 -0.799938
vn 0.587720 -0.134826 -0.797752
vn 0.948183 -0.133287 -0.288414
vn 0.947574 -0.140944 -0.286773
vn 0.930131 -0.149156 0.335574
vn 0.931577 -0.141933 0.334693
vn 0.559960 -0.156324 0.813639
vn 0.561940 -0.145241 0.814327
vn 0.000000 -0.152677 0.988276
vn 0.000000 -0.152277 0.988338
vn -0.559960 -0.156324 0.813639
vn -0.561940 -0.145241 0.814327
vn -0.930130 -0.149156 0.335574
vn -0.931577 -0.141933 0.334693
vn -0.948448 -0.129715 -0.289173
vn -0.948924 -0.122776 -0.290636
vn -0.587003 -0.098650 -0.803552
vn -0.586651 -0.088242 -0.805018
vn 0.000000 -0.080427 -0.996761
vn 0.000000 -0.080324 -0.996769
vn 0.587003 -0.098650 -0.803552
vn 0.586651 -0.088242 -0.805018
vn 0.948448 -0.129715 -0.289173
vn 0.948924 -0.122776 -0.290636
vn 0.927738 -0.160568 0.336928
vn 0.926786 -0.164939 0.337436
vn 0.554589 -0.184492 0.811415
vn 0.553087 -0.191936 0.810713
vn 0.000000 -0.196905 0.980423
vn 0.000000 -0.196961 0.980411
vn -0.554589 -0.184492 0.811415
vn -0.553087 -0.191936 0.810713
vn -0.927738 -0.160568 0.336929
vn -0.926786 -0.164939 0.337436
vn -0.940791 -0.200517 -0.273324
vn -0.941051 -0.198708 -0.273750
vn -0.581458 -0.291762 -0.759462
vn -0.582002 -0.285605 -0.761383
vn 0.000000 -0.323272 -0.946306
vn 0.000000 -0.322083 -0.946712
vn 0.581457 -0.291762 -0.759462
vn 0.582002 -0.285605 -0.761383
vn 0.940791 -0.200517 -0.273324
vn 0.941051 -0.198708 -0.273750
vn 0.940624 -0.088673 0.327665
vn 0.940346 -0.090598 0.327936
vn 0.581289 0.002196 0.813694
vn 0.580767 -0.003647 0.814062
vn 0.000000 0.033659 0.999433
vn 0.000000 0.032758 0.999463
vn -0.581289 0.002196 0.813694
vn -0.580767 -0.003647 0.814062
vn -0.940623 -0.088672 0.327666
vn -0.940346 -0.090598 0.327936
vn -0.931232 -0.261922 -0.253386
vn -0.930361 -0.259788 -0.258727
vn -0.553149 -0.489864 -0.673839
vn -0.551980 -0.478208 -0.683108
vn 0.000000 -0.563231 -0.826299
vn 0.000000 -0.562321 -0.826919
vn 0.553149 -0.489864 -0.673839
vn 0.551980 -0.478208 -0.683108
vn 0.931232 -0.261922 -0.253386
vn 0.930361 -0.259788 -0.258727
vn 0.951386 0.065123 0.301037
vn 0.950785 0.033606 0.308024
vn 0.580733 0.334529 0.742186
vn 0.581411 0.292274 0.759300
vn 0.000000 0.415245 0.909710
vn 0.000000 0.413007 0.910728
vn -0.580733 0.334529 0.742186
vn -0.581411 0.292274 0.759300
vn -0.951386 0.065123 0.301037
vn -0.950785 0.033607 0.308025
vn 0.226201 -0.972578 0.054090
vn 0.642076 -0.753450 0.141600
vn -0.950735 0.189201 0.245572
vn -0.945416 0.147343 0.290653
vn -0.950582 0.189545 0.245900
vn -0.927797 0.078719 0.364685
vn 0.950736 0.189199 0.245572
vn 0.950582 0.189543 0.245900
vn 0.945416 0.147342 0.290652
vn 0.927408 0.079857 0.365429
vn -0.557469 0.751642 0.352509
vn -0.569394 0.730317 0.377395
vn -0.323641 0.868110 0.376352
vn -0.302521 0.854690 0.421883
vn -0.218890 -0.974347 0.052302
vn 0.775597 -0.582910 0.242209
vn 0.557468 0.751643 0.352509
vn 0.313338 0.871671 0.376842
vn 0.569559 0.729628 0.378478
vn 0.286333 0.859611 0.423182
vn -0.642076 -0.753450 0.141600
vn -0.775599 -0.582908 0.242208
vn 0.197512 -0.952955 0.229925
vn 0.496782 -0.828194 0.259428
vn -0.882672 0.035715 0.468631
vn -0.858294 0.100419 0.503236
vn 0.878375 0.048226 0.475534
vn 0.846826 0.126748 0.516546
vn -0.590491 0.629724 0.504746
vn -0.610112 0.622279 0.490440
vn -0.159532 -0.960201 0.229269
vn 0.587976 -0.774731 0.232545
vn 0.593099 0.623028 0.509971
vn 0.624983 0.610298 0.486758
vn -0.496783 -0.828193 0.259430
vn -0.587973 -0.774733 0.232543
vn -0.000002 0.866649 0.498918
vn -0.000006 0.866646 0.498923
vn 0.200632 -0.066070 0.977436
vn 0.000336 0.039422 0.999223
vn 0.276488 -0.043389 0.960037
vn -0.200851 -0.067072 0.977323
vn -0.269446 0.063987 0.960887
vn -0.282048 0.103021 0.953853
vn -0.105583 0.039589 0.993622
vn 0.105678 0.039451 0.993618
vn 0.277315 0.103557 0.955182
vn 0.270121 0.070952 0.960209
vn -0.275912 -0.044211 0.960166
f 1/1/1 2/2/2 96/115/3
f 96/115/3 2/2/2 95/113/4
f 2/2/2 3/3/5 95/113/6
f 95/113/6 3/3/5 94/112/7
f 4/4/8 93/111/9 3/3/5
f 3/3/5 93/111/9 94/112/10
f 5/5/11 92/110/12 4/4/13
f 4/4/13 92/110/12 93/111/14
f 6/6/15 101/120/16 5/5/17
f 5/5/17 101/120/16 92/110/18
f 7/7/19 100/119/20 6/6/21
f 6/6/21 100/119/20 101/120/22
f 7/7/23 8/8/24 100/119/25
f 100/119/25 8/8/24 99/118/26
f 8/8/27 9/9/28 99/118/29
f 99/118/29 9/9/28 98/117/30
f 9/9/31 10/10/32 98/117/33
f 98/117/33 10/10/32 97/116/34
f 10/10/35 1/154/36 97/116/37
f 97/116/37 1/154/36 96/114/38
f 11/11/39 12/12/40 21/22/41
f 21/22/41 12/12/40 22/23/42
f 12/12/43 13/13/44 22/23/45
f 22/23/45 13/13/44 23/24/46
f 14/14/47 24/25/48 13/13/49
f 13/13/49 24/25/48 23/24/50
f 15/15/51 25/26/52 14/14/53
f 14/14/53 25/26/52 24/25/54
f 16/16/55 26/27/56 15/15/57
f 15/15/57 26/27/56 25/26/58
f 17/17/59 27/28/60 16/16/61
f 16/16/61 27/28/60 26/27/62
f 17/17/63 18/18/64 27/28/65
f 27/28/65 18/18/64 28/29/66
f 18/18/67 19/19/68 28/29/69
f 28/29/69 19/19/68 29/30/70
f 19/19/71 20/20/72 29/30/73
f 29/30/73 20/20/72 30/31/74
f 20/20/75 11/21/76 30/31/77
f 30/31/77 11/21/76 21/32/78
f 21/22/41 22/23/42 31/33/79
f 31/33/79 22/23/42 32/34/80
f 22/23/45 23/24/46 32/34/81
f 32/34/81 23/24/46 33/35/82
f 24/25/48 34/36/83 23/24/50
f 23/24/50 34/36/83 33/35/84
f 25/26/52 35/37/85 24/25/54
f 24/25/54 35/37/85 34/36/86
f 26/27/56 36/38/87 25/26/58
f 25/26/58 36/38/87 35/37/88
f 27/28/60 37/39/89 26/27/62
f 26/27/62 37/39/89 36/38/90
f 27/28/65 28/29/66 37/39/91
f 37/39/91 28/29/66 38/40/92
f 28/29/69 29/30/70 38/40/93
f 38/40/93 29/30/70 39/41/94
f 29/30/73 30/31/74 39/41/95
f 39/41/95 30/31/74 40/42/96
f 30/31/77 21/32/78 40/42/97
f 40/42/97 21/32/78 31/43/98
f 31/33/79 32/34/80 41/44/99
f 41/44/99 32/34/80 42/45/100
f 32/34/81 33/35/82 42/45/101
f 42/45/101 33/35/82 43/46/102
f 34/36/83 44/47/103 33/35/84
f 33/35/84 44/47/103 43/46/104
f 35/37/85 45/48/105 34/36/86
f 34/36/86 45/48/105 44/47/106
f 36/38/87 46/49/107 35/37/88
f 35/37/88 46/49/107 45/48/108
f 37/39/89 47/50/109 36/38/90
f 36/38/90 47/50/109 46/49/110
f 37/39/91 38/40/92 47/50/111
f 47/50/111 38/40/92 48/51/112
f 38/40/93 39/41/94 48/51/113
f 48/51/113 39/41/94 49/52/114
f 39/41/95 40/42/96 49/52/115
f 49/52/115 40/42/96 50/53/116
f 40/42/97 31/43/98 50/53/117
f 50/53/117 31/43/98 41/54/118
f 41/63/119 42/62/120 51/65/121
f 42/62/120 43/61/122 51/65/121
f 43/61/122 44/60/123 51/65/121
f 44/60/123 45/59/124 51/65/121
f 45/59/124 46/58/125 51/65/121
f 46/58/125 47/57/126 51/65/121
f 47/57/126 48/56/127 51/65/121
f 48/56/127 49/55/128 51/65/121
f 49/55/128 50/64/129 51/65/121
f 50/64/129 41/63/119 51/65/121
f 53/67/130 52/66/131 14/14/53
f 14/14/53 52/66/131 15/15/51
f 54/68/132 53/67/133 13/13/49
f 13/13/49 53/67/133 14/14/47
f 55/69/134 54/68/135 12/12/43
f 12/12/43 54/68/135 13/13/44
f 55/69/136 12/12/40 56/71/137
f 56/71/137 12/12/40 11/11/39
f 56/70/138 11/21/76 57/72/139
f 57/72/139 11/21/76 20/20/75
f 57/72/140 20/20/72 58/73/141
f 58/73/141 20/20/72 19/19/71
f 58/73/142 19/19/68 59/74/143
f 59/74/143 19/19/68 18/18/67
f 60/75/144 59/74/145 17/17/63
f 17/17/63 59/74/145 18/18/64
f 61/76/146 60/75/147 16/16/61
f 16/16/61 60/75/147 17/17/59
f 52/66/148 61/76/149 15/15/57
f 15/15/57 61/76/149 16/16/55
f 63/78/150 62/77/151 53/67/130
f 53/67/130 62/77/151 52/66/131
f 64/79/152 63/78/153 54/68/132
f 54/68/132 63/78/153 53/67/133
f 65/80/154 64/79/155 55/69/134
f 55/69/134 64/79/155 54/68/135
f 65/80/156 55/69/136 66/82/157
f 66/82/157 55/69/136 56/71/137
f 66/81/158 56/70/138 67/83/159
f 67/83/159 56/70/138 57/72/139
f 67/83/160 57/72/140 68/84/161
f 68/84/161 57/72/140 58/73/141
f 68/84/162 58/73/142 69/85/163
f 69/85/163 58/73/142 59/74/143
f 70/86/164 69/85/165 60/75/144
f 60/75/144 69/85/165 59/74/145
f 71/87/166 70/86/167 61/76/146
f 61/76/146 70/86/167 60/75/147
f 62/77/168 71/87/169 52/66/148
f 52/66/148 71/87/169 61/76/149
f 73/89/170 72/88/171 63/78/150
f 63/78/150 72/88/171 62/77/151
f 74/90/172 73/89/173 64/79/152
f 64/79/152 73/89/173 63/78/153
f 75/91/174 74/90/175 65/80/154
f 65/80/154 74/90/175 64/79/155
f 75/91/176 65/80/156 76/93/177
f 76/93/177 65/80/156 66/82/157
f 76/92/178 66/81/158 77/94/179
f 77/94/179 66/81/158 67/83/159
f 77/94/180 67/83/160 78/95/181
f 78/95/181 67/83/160 68/84/161
f 78/95/182 68/84/162 79/96/183
f 79/96/183 68/84/162 69/85/163
f 80/97/184 79/96/185 70/86/164
f 70/86/164 79/96/185 69/85/165
f 81/98/186 80/97/187 71/87/166
f 71/87/166 80/97/187 70/86/167
f 72/88/188 81/98/189 62/77/168
f 62/77/168 81/98/189 71/87/169
f 82/99/190 72/88/171 83/100/191
f 83/100/191 72/88/171 73/89/170
f 83/100/192 73/89/173 84/101/193
f 84/101/193 73/89/173 74/90/172
f 85/102/194 84/101/195 75/91/174
f 75/91/174 84/101/195 74/90/175
f 86/104/196 85/102/197 76/93/177
f 76/93/177 85/102/197 75/91/176
f 87/105/198 86/103/199 77/94/179
f 77/94/179 86/103/199 76/92/178
f 88/106/200 87/105/201 78/95/181
f 78/95/181 87/105/201 77/94/180
f 89/107/202 88/106/203 79/96/183
f 79/96/183 88/106/203 78/95/182
f 90/108/204 89/107/205 80/97/184
f 80/97/184 89/107/205 79/96/185
f 90/108/206 80/97/187 91/109/207
f 91/109/207 80/97/187 81/98/186
f 91/109/208 81/98/189 82/99/209
f 82/99/209 81/98/189 72/88/188
f 92/110/12 82/99/190 93/111/14
f 93/111/14 82/99/190 83/100/191
f 93/111/9 83/100/192 94/112/10
f 94/112/10 83/100/192 84/101/193
f 95/113/6 94/112/7 85/102/194
f 85/102/194 94/112/7 84/101/195
f 96/115/3 95/113/4 86/104/196
f 86/104/196 95/113/4 85/102/197
f 97/116/37 96/114/38 87/105/198
f 87/105/198 96/114/38 86/103/199
f 98/117/33 97/116/34 88/106/200
f 88/106/200 97/116/34 87/105/201
f 99/118/29 98/117/30 89/107/202
f 89/107/202 98/117/30 88/106/203
f 100/119/25 99/118/26 90/108/204
f 90/108/204 99/118/26 89/107/205
f 100/119/20 90/108/206 101/120/22
f 101/120/22 90/108/206 91/109/207
f 101/120/16 91/109/208 92/110/18
f 92/110/18 91/109/208 82/99/209
f 2/2/2 1/1/1 103/121/210
f 103/121/210 1/1/1 102/141/211
f 5/5/212 104/124/213 6/6/214
f 6/6/214 104/124/213 105/123/215
f 10/10/216 9/9/217 106/125/218
f 106/125/218 9/9/217 107/126/219
f 6/6/220 105/123/221 7/7/222
f 7/7/222 105/123/221 108/127/223
f 3/3/5 2/2/2 109/128/224
f 109/128/224 2/2/2 103/121/210
f 1/154/36 10/10/35 102/122/211
f 102/122/211 10/10/35 106/125/225
f 9/9/226 8/8/227 107/126/228
f 107/126/228 8/8/227 110/129/229
f 4/4/13 111/130/230 5/5/11
f 5/5/11 111/130/230 104/124/231
f 8/8/227 7/7/222 110/129/229
f 110/129/229 7/7/222 108/127/223
f 3/3/5 109/128/224 4/4/8
f 4/4/8 109/128/224 111/130/230
f 103/121/210 102/141/211 113/142/232
f 113/153/232 102/122/211 112/152/233
f 104/124/213 114/146/234 105/123/215
f 105/123/215 114/146/234 115/147/235
f 106/125/218 107/126/219 117/151/236
f 117/151/236 107/126/219 116/150/237
f 105/123/221 115/147/238 108/127/223
f 108/127/223 115/147/238 118/148/239
f 109/128/224 103/121/210 119/144/240
f 119/144/240 103/121/210 113/142/232
f 102/122/211 106/125/225 112/152/233
f 112/152/233 106/125/225 117/151/241
f 107/126/228 110/129/229 116/150/242
f 116/150/242 110/129/229 120/149/243
f 111/130/230 121/145/244 104/124/231
f 104/124/231 121/145/244 114/146/245
f 110/129/229 108/127/223 120/149/246
f 120/149/246 108/127/223 118/148/247
f 109/128/224 119/144/240 111/130/230
f 111/130/230 119/144/240 121/145/244
f 119/140/248 122/143/249 121/139/250
f 113/132/251 122/143/249 119/140/248
f 122/143/249 117/136/252 116/135/253
f 122/143/249 116/135/253 120/138/254
f 122/143/249 120/138/254 118/137/255
f 115/134/256 122/143/249 118/137/255
f 121/139/250 122/143/249 114/133/257
f 122/143/249 112/131/258 117/136/252
f 114/133/257 122/143/249 115/134/256
f 113/132/251 112/131/258 122/143/249
